<svg id="Layer_1" data-name="Layer 1" xmlns="http://www.w3.org/2000/svg" viewBox="0 0 280 300"><defs><style>.cls-1{fill:#fff;}.cls-2{fill:#19a3dd;}.cls-3{fill:#42758e;}.cls-4{fill:#fcee1f;}.cls-5{fill:#ee3541;}.cls-6{fill:#010101;}</style></defs><title>miami marlins logo</title><path class="cls-1" d="M123.58,147.83q-1,1.13-2,2.34a29.41,29.41,0,0,0-2.84,4.5l-.26.52a32.28,32.28,0,0,0-2.34,6.61,22.09,22.09,0,0,0,.06,4.74,29.77,29.77,0,0,1,3.25-10.68l.25-.47a29.33,29.33,0,0,1,2.18-3.33c.63-.81,1.29-1.59,2-2.33h0c.07-.31.15-.63.23-.94.18-.75.4-1.48.65-2.21h0C124.38,147,124,147.4,123.58,147.83Z"/><path class="cls-2" d="M175.67,102.52h-.12l-1.51,0a52.21,52.21,0,0,0-6.22.37l-.31,0-.29-.13a30.66,30.66,0,0,0-7.55-2.33l-.23-.48A118.63,118.63,0,0,0,140.39,71.7c-1-1-1.63-1.6-2.28-2.16-.28.87-.55,1.75-.79,2.64a35.86,35.86,0,0,0-1.15,11.16c0,2.36-.3,8.61-3.07,13.57-1.66,3-4.28,5.42-8.47,8.26l0,0-1.93,1.19a80.28,80.28,0,0,0-6.81,4.38,47.61,47.61,0,0,0-14.28,16.74A101.09,101.09,0,0,0,81.93,135h0c16.64-5.42,34.08-6.07,47.05-5.5a70.64,70.64,0,0,1,10.91-5.09,94.47,94.47,0,0,0-24,.31q-2.06.27-4.2.63-3.9.65-7.74,1.58l-.1,0a44.88,44.88,0,0,1,5.56-7.91,49.53,49.53,0,0,1,11.28-9.48h0q1.83-1.2,3.71-2.31a30.14,30.14,0,0,0,7.48-5.83,14.91,14.91,0,0,0,1.46-1.8,23.16,23.16,0,0,0,2.18-3.73,32.45,32.45,0,0,0,2.33-13.52v-.68c0-.68,0-1.36,0-2a22.51,22.51,0,0,1,1.11-7c.55.59,1.08,1.18,1.6,1.78,2.09,2.38,4,4.79,5.76,7.16,1.5,2,2.93,4.1,4.29,6.23l.55.86.66,1.05a124.61,124.61,0,0,1,6.61,12.19q1.19.21,2.19.45a26.51,26.51,0,0,1,6.55,2.27h0a49.84,49.84,0,0,1,8.55-.43l1.35-.24,4.6-.83,27.5-5,6.06-1.55,1.46-1.41ZM99.05,141.13c.18-1.1.39-2.2.65-3.29a42,42,0,0,1,1.43-4.8h0l-1.91.08c-4.89,14.34-1.93,29.45,4,38.95-6.59-11.67-5.21-25.21-4.19-30.94Z"/><path class="cls-3" d="M209.32,98.12s-27.7,10.14-33.8,12.45a8.74,8.74,0,0,0-5.94,8l.46,0,11.44-.7a39,39,0,0,1,4.46,0H186l.83.07.42,0a23.31,23.31,0,0,1,2.84.45l.16,0a9.26,9.26,0,0,1,3.46,1.38l-21.49,2.3-6.79,6.6,0,0h0c-14.88-.1-43.45,9.26-48.58,29.63a22.35,22.35,0,0,0-.54,2.78s0,.27-.08.67h0a32.28,32.28,0,0,1,2.34-6.61c.06-.13.13-.26.2-.39l0-.06,0,.06-.06.11.12-.24a30.2,30.2,0,0,1,2.84-4.5q.93-1.21,2-2.34c.4-.43.8-.85,1.22-1.26h0c4.81-4.74,10.9-8,15.1-9.91a74.22,74.22,0,0,1,14-4.82,50.26,50.26,0,0,1,11.24-1.47h.92l7.31-7.15,23.89-2.57a22.14,22.14,0,0,0-13-4.1c-.86,0-1.77,0-2.88.1l-9.74.59.52-1.57a6.67,6.67,0,0,1,3.94-4c5.78-2.18,35.29-13,38.17-14.1l1-1-6.06,1.56Z"/><path class="cls-2" d="M142,200.78c-.19-1.26-.37-2.35-.56-3.3a4.92,4.92,0,0,0-.89.21v.05l.08.55c.16,1,.5,3.17.94,6.13l.64-2.15c-.07-.5-.15-1-.22-1.49Z"/><polygon class="cls-4" points="118.76 154.74 118.72 154.8 118.67 154.91 118.63 155 118.67 154.91 118.72 154.8 118.76 154.74"/><path class="cls-3" d="M149.71,213.72c0,.85.09,1.69.17,2.54.12,1.07.27,2.13.48,3.19a32.26,32.26,0,0,0,1.77,6.06,18.41,18.41,0,0,0,.8,1.68v0a34.22,34.22,0,0,0,3.83,3.23l.07,0-2.26-4.07-.62-1.16a31.06,31.06,0,0,1-2.71-11.59,13.13,13.13,0,0,1-1.38.09Zm25.65-48.21h0l-.46.18h0l-.22.09,0,0-.29.12-.24.11a31.38,31.38,0,0,0-5.93,3.78c-.37.29-.74.59-1.09.9-2,1.82-4.64,4.74-4.87,5-4.35,4.7-9.55,11.33-9.61,11.42a3,3,0,0,0-.61,1.29c0,.14,0,.29-.05.43s0,.61-.08,1h1.46c.06-.52.1-1,.12-1.5v-.06a1.56,1.56,0,0,1,.44-.83c.74-1,2.54-3.21,4.09-5.11,2.55-2.87,4.71-5.37,6.73-7.61a36.23,36.23,0,0,1,10.36-8.07l3.74-1.61.58-.19h0a25.4,25.4,0,0,0-4,.59Zm-6.07-53c-6.86,2.28-7.94,6.6-7.94,6.6l5.19-.32C167.13,113.75,169.29,112.51,169.29,112.51Z"/><path class="cls-2" d="M141.81,82.31c0,.33,0,.67,0,.8a30.87,30.87,0,0,1-5.71,20.7,43.54,43.54,0,0,1,16.76-3.56A133.07,133.07,0,0,0,141.81,82.31Zm-18.31,82.2c2.71,14.53,13.1,19.33,13.92,19.66,3.65,1.54,6.29.38,6.94-.09a23.31,23.31,0,0,0,3-2.3l5.9-5.21,4.44-3.86.83-.72c.63-.54,1.26-1.07,1.91-1.57A37.61,37.61,0,0,1,163.9,168l.54-.32a18.79,18.79,0,0,1,7-2.63,6.49,6.49,0,0,1,3.87.46h0a26.68,26.68,0,0,1,4-.6l-.21-.08-1.73-.62a15.22,15.22,0,0,0-4.69-.9c-4.62,0-9.84,2.49-15.49,7.39-2.24,1.94-9.31,8.53-9.38,8.59l-.31.3c-1.39,1.29-4,3.69-6.39,3.71a11.69,11.69,0,0,1-6.32-2.25c-5.84-4.39-9.19-10.57-10.71-20.06a40.51,40.51,0,0,1-.81-7.55c-.06.49-.11,1-.15,1.55a37.07,37.07,0,0,0,.33,9.53Z"/><path class="cls-5" d="M191.1,155.93l0,0v0a4.81,4.81,0,0,0,.23-1.34c0-.13.15-1.47.15-1.47l-.37,1c-.3.84-.68,1.31-1.14,1.43a.85.85,0,0,1-.23,0h-.14l0,.14a3.2,3.2,0,0,1-1.62,3.07l-.06,0v.06c0,.3-.05.61-.11,1l0,.26.24-.14a8.18,8.18,0,0,0,.93-.67,3.94,3.94,0,0,0,1.62-2.92A2.6,2.6,0,0,0,191.1,155.93Zm-1.35,5.15,0,0v0c.26-.8.47-1.57.68-2.35l.33-1.21-.5,1.09a5,5,0,0,1-2,2.28l-.08,0v.09a1.56,1.56,0,0,1-.6,1.13l-.22.15,0,0v.05c-.13.44-.27.87-.42,1.3l-.11.32.3-.17c.72-.42,1.93-1.26,2.05-2.29C189.25,161.4,189.48,161.27,189.75,161.08Zm-1.64,4.49,0,0c.28-.67.68-1.83,1-2.67a4.93,4.93,0,0,1-2.64,2l-.05,0,0,.05c-.2.49-.4.94-.61,1.37l-.14.29.3-.11c.12,0,1.24-.46,2.13-.92l0,0Zm-8.42,10.79h0l0,0c.75-.58,1.47-1.19,2.17-1.83l.3-.28-.41.06a12,12,0,0,1-1.27.1h-.06l0,0c-.62.64-1.26,1.24-1.92,1.82l-.29.25.38,0c.33,0,.69-.05,1.07-.1Zm3.67-3.27,0,0a26.65,26.65,0,0,0,1.8-2.12l.26-.35-.41.15a12.56,12.56,0,0,1-2,.56h0l0,.05c-.45.64-.94,1.27-1.45,1.87l-.22.25.33,0a13.73,13.73,0,0,0,1.67-.34Zm-5.5,4.26a5.92,5.92,0,0,1-.61,0h-.05l0,0,0,0,0,0a56.13,56.13,0,0,1-7.54,4.7,47.15,47.15,0,0,0,8.53-4.54l.34-.24h-.54Zm8.48-8.12,0,0a17.94,17.94,0,0,0,1.09-2.14l.16-.36-.34.2h0l-2.54,1.47-.09,0a1.85,1.85,0,0,1-.07.19,12,12,0,0,1-.7,1.39l-.16.28.31-.1a15.69,15.69,0,0,0,2.29-.93Zm-58.29-15.35a23.24,23.24,0,0,0-.43-3.68l0-.14-.13.05-1.47.55-.1,0,0,.11a26.53,26.53,0,0,1,.34,3.57v.28l0,0,.14.17a14.1,14.1,0,0,1,2.24,4.47l0,.13,1.74-.67,0-.11A15.83,15.83,0,0,0,128.05,153.88Zm2.68,0a8.58,8.58,0,0,1,2.25,3.77l0,.14,1.71-.69,0-.12a10.2,10.2,0,0,0-2.47-4.27,20.21,20.21,0,0,0-.65-4.11l0-.15-.14.06-1.48.62-.1,0,0,.11a16.75,16.75,0,0,1,.58,3.95v.4l0,0,.25.21ZM137.2,156l0,.14,1.69-.7,0-.11a9.53,9.53,0,0,0-2.56-4.28,10.7,10.7,0,0,0-.77-4.28l-.05-.12-.12.05-1.55.7,0,.11a8.64,8.64,0,0,1,.63,3.92l0,.43v.07l.06,0,.33.25A7.64,7.64,0,0,1,137.2,156Zm4.4-1.77,0,.13,1.56-.65.11,0,0-.11a8.86,8.86,0,0,0-2.64-4.11,9.68,9.68,0,0,0-.8-4.53l-.05-.12-.12.06-1.39.66-.12.06.06.11a7.84,7.84,0,0,1,.57,4l-.09.51v.08l.07,0,.43.27A6.64,6.64,0,0,1,141.6,154.18Zm4.16-1.75,0,.12,1.7-.64,0-.1a7.89,7.89,0,0,0-2.52-4.15,8.88,8.88,0,0,0-.54-4.75l0-.12-.12.05-1.41.62-.12.06,0,.11a6.92,6.92,0,0,1,.31,4.15l-.17.58,0,.09.09.05.52.31A5.73,5.73,0,0,1,145.76,152.43Zm4.15-1.64,0,.12,1.72-.61,0-.11a7.13,7.13,0,0,0-2.37-4.1,8.44,8.44,0,0,0-.28-5l0-.12-.12.05-1.43.59-.12.05.05.12a6.34,6.34,0,0,1,0,4.28l-.27.65,0,.11.1.05.62.33a4.94,4.94,0,0,1,2.15,3.56Zm4.15-1.59v.13l.13,0,1.52-.47.1,0,0-.11a6.51,6.51,0,0,0-2.23-4.12,8,8,0,0,0,0-5.19l0-.11-.11,0-1.45.56-.12,0,.05.12a6,6,0,0,1-.22,4.45l-.36.71-.06.11.11.06.73.34A4.47,4.47,0,0,1,154.06,149.2Zm4.15-1.35V148l.15,0,1.51-.46.1,0v-.11a6.3,6.3,0,0,0-2.09-4.14,7.82,7.82,0,0,0,.24-5.38l0-.12-1.59.53-.12,0,0,.12a5.91,5.91,0,0,1-.47,4.62l-.47.74-.08.12.13.06.79.37a4.11,4.11,0,0,1,1.9,3.53Zm4.12-1.19,0,.15.14,0c.51-.14,1-.26,1.51-.38l.11,0v-.11a7.1,7.1,0,0,0-2-4.17,7.55,7.55,0,0,0,.62-5.45l0-.12-.12,0-1.51.36-.13,0,0,.13a5.65,5.65,0,0,1-.77,4.66l-.48.66-.08.11.11.07.68.45a5,5,0,0,1,1.87,3.65Zm4.08-.84,1.7-.25.11,0v-.11a5.57,5.57,0,0,0-1.65-4.26,7.62,7.62,0,0,0,.93-5.39l0-.11h-.11l-1.54.22-.14,0,0,.13a5.64,5.64,0,0,1-1.08,4.71l-.65.78-.11.12.15.07.92.43s1.58.8,1.47,3.51Zm4.39-.5.16,0c.52,0,1-.06,1.55-.07h.12v-.11a6.32,6.32,0,0,0-1.23-4.43,6.66,6.66,0,0,0,1.15-5.07v-.11h-.11c-.53,0-1.05,0-1.58,0h-.15l0,.15a4.82,4.82,0,0,1-1.18,4.39l-.66.62-.11.1.12.09.72.56a4.15,4.15,0,0,1,1.19,3.75l0,.16Zm6.23-9.19,0-.08-.08,0c-.55-.12-1.1-.22-1.66-.3l-.19,0,0,.19a3.72,3.72,0,0,1-1.12,4l-.63.48-.1.08.08.11.5.61a5.65,5.65,0,0,1,1,4v.13l.13,0c.52,0,1,.09,1.53.17l.13,0v-.13a7.55,7.55,0,0,0-.93-4.6,5.53,5.53,0,0,0,1.3-4.62Zm.82,9.59.14,0a12.62,12.62,0,0,1,1.47.44l.12.05,0-.12a7.53,7.53,0,0,0,0-5,5,5,0,0,0,1.17-3.61v-.22l-.07,0a15.42,15.42,0,0,0-1.64-.63l-.2-.06,0,.2c0,.31.09.61.11.89a3.32,3.32,0,0,1-1,2.58l-.47.39-.07.07,0,.09.27.54a5.62,5.62,0,0,1,.1,4.23Zm2.93,1.05.11.06a10.12,10.12,0,0,1,1.31.79l.12.08.07-.13a7.57,7.57,0,0,0,.74-4.86,3.59,3.59,0,0,0,1.33-2,4.32,4.32,0,0,0,.15-.91v-.07l-.05,0a15.91,15.91,0,0,0-1.68-1.25l-.27-.18.08.31a3.36,3.36,0,0,1,0,1.66,2,2,0,0,1-1,1.22l-.58.31-.09.05,0,.11.21.62a5.62,5.62,0,0,1-.42,4.07l-.05.11Zm5.83-5-.11-.13-.18-.21,0,.27a2.25,2.25,0,0,1-.09.35,2.29,2.29,0,0,1-1.36,1.35l-.55.25-.1,0,0,.11.16.58a5.27,5.27,0,0,1-1,4l-.06.09.08.07a10.82,10.82,0,0,1,1,1l.1.12.1-.13a7.09,7.09,0,0,0,1.5-4.95c1.16-1,1.21-1.49,1.24-1.82v-.11l0,0a10,10,0,0,0-.7-.88Zm1.94,2.72-.1-.16-.2-.32,0,.37c-.12,1.16-.24,1.66-1.23,2.09l-.76.25,0,.13a3.49,3.49,0,0,1,.24.63c0,.21.52,1.5-1.23,3.12l-.08.07.06.09c.23.36.45.74.66,1.13l.07.14.12-.11a4.9,4.9,0,0,0,2-4.27,2.42,2.42,0,0,0,1.08-2v0l0,0a11.24,11.24,0,0,0-.61-1.09Z"/><path class="cls-5" d="M190.05,147.44l-.14-.3-.2-.45,0,.49c-.07.76-.28,1.7-.9,1.84l-.53.12-.11,0v.11l0,.54a4.84,4.84,0,0,1-1.63,3.28l-.06.06,0,.08c.16.41.32.85.46,1.31l.06.19.15-.13a6.88,6.88,0,0,0,2.49-4.28,2,2,0,0,0,.83-1.78v0C190.36,148.14,190.21,147.78,190.05,147.44Zm-.19,4.81h-.57v.1l0,.55a3.84,3.84,0,0,1-1.89,2.82l-.07,0,0,.08c.1.42.18.82.26,1.21l0,.19.16-.1a5.85,5.85,0,0,0,2.81-3.62,1.52,1.52,0,0,0,.61-.69,3.21,3.21,0,0,0-.07-2.57l-.19-.48-.06.52a3.45,3.45,0,0,1-.55,1.73A.71.71,0,0,1,189.86,152.25Z"/><path class="cls-6" d="M142.21,202.27l1.16-3.89a.85.85,0,0,0-.48-.71,2.35,2.35,0,0,0-1.46-.19c.19,1,.37,2,.56,3.3C142.06,201.25,142.13,201.75,142.21,202.27ZM116.8,158.36c5.13-20.37,33.7-29.73,48.58-29.63h0l0,0,6.79-6.6,21.49-2.3a9.38,9.38,0,0,0-3.46-1.38l-.17,0a22.52,22.52,0,0,0-2.83-.45l-.42,0-.83-.07h-.07a39,39,0,0,0-4.46,0l-11.44.69-.47,0a8.78,8.78,0,0,1,6-8c6.1-2.3,33.8-12.44,33.8-12.44l-27.59,5-4.6.83-1.35.24a49.77,49.77,0,0,0-8.54.43,26.51,26.51,0,0,0-6.55-2.27c-.68-.16-1.4-.31-2.2-.45a122.44,122.44,0,0,0-6.6-12.19l-.67-1.05-.54-.87q-2.06-3.18-4.29-6.22-2.73-3.71-5.76-7.16c-.52-.6-1.06-1.19-1.6-1.78a22.51,22.51,0,0,0-1.11,7c0,.67,0,1.34,0,2v.69a32.61,32.61,0,0,1-2.33,13.52,22.82,22.82,0,0,1-2.19,3.73,13.93,13.93,0,0,1-1.45,1.8,30.14,30.14,0,0,1-7.48,5.83c-1.26.74-2.49,1.51-3.71,2.31h0l-.06,0h0a50.16,50.16,0,0,0-11.2,9.44,44.36,44.36,0,0,0-5.56,7.91l.09,0c2.68-.65,5.2-1.16,7.75-1.58a40.35,40.35,0,0,1,3.87-4.49,41.85,41.85,0,0,1,3.66-3.12c8-6,19.18-9.3,31.25-9.68h.82c-14.18,1.8-26.94,7.24-35.41,16.67a94.54,94.54,0,0,1,24-.31A69.72,69.72,0,0,0,129,129.45a58,58,0,0,0-6.25,4.16q-6.26-.59-12.54-.68c-3.67,7.06-5.44,15.65-4.66,25.85a43,43,0,0,1-1.3-8.67,38.77,38.77,0,0,1,3.09-17.2q-3.27,0-6.22.13a44.18,44.18,0,0,0-1.44,4.8c-.25,1.09-.47,2.18-.64,3.29-1,5.73-2.41,19.27,4.19,30.94a34.14,34.14,0,0,0,3.68,5.25q.56-.36,1.14-.69h0a19.72,19.72,0,0,1,4.44-1.81,17,17,0,0,1,1.8-.43l.45,0a20.94,20.94,0,0,1,4.8-.58,37.93,37.93,0,0,1,4,.16c-1.12.92-1.69,1.36-2.77,2.35a17.51,17.51,0,0,0-5,8.08c1.27.76,2.58,1.47,3.91,2.11a4.14,4.14,0,0,1,1.61-4.53l.08-.07a4.31,4.31,0,1,1,5.29,6.4,1.84,1.84,0,0,1-.22.17,5,5,0,0,1-.7.51,57.75,57.75,0,0,0,10.86,2.5l.13-.08a15.06,15.06,0,0,1,1.87-1,9.92,9.92,0,0,1,8.24-.11,7.12,7.12,0,0,1,.85.48,3.55,3.55,0,0,1,2.26-.88h1.89c0-.44.06-.82.07-1a3,3,0,0,1,.06-.43,3,3,0,0,1,.6-1.29c.06-.09,5.27-6.72,9.62-11.42.22-.24,2.84-3.16,4.87-5,.39-.35.76-.66,1.08-.9a31.68,31.68,0,0,1,5.94-3.78l.24-.11.29-.13h0l.25-.1.45-.18h0a6.49,6.49,0,0,0-3.87-.46,18.88,18.88,0,0,0-7,2.63l-.53.32a37.76,37.76,0,0,0-3.47,2.42c-.64.5-1.28,1-1.9,1.57l-.83.72-4.45,3.86-5.89,5.21a24,24,0,0,1-3,2.3c-.66.47-3.29,1.63-6.94.09-.82-.32-11.21-5.13-13.92-19.66a37.07,37.07,0,0,1-.33-9.53c0-.54.09-1.06.15-1.55a36.64,36.64,0,0,1,.6-3.7,29.46,29.46,0,0,0-2,2.33,27.24,27.24,0,0,0-2.18,3.33l-.25.47a29.71,29.71,0,0,0-3.25,10.68,23.82,23.82,0,0,1-.07-4.73c0-.4.07-.63.08-.67A22.3,22.3,0,0,1,116.8,158.36Zm52.49-45.85s-2.16,1.24-2.75,6.28l-5.19.32S162.43,114.79,169.29,112.51Zm-33.16-8.7a30.93,30.93,0,0,0,5.7-20.7c0-.13,0-.47,0-.8a133.07,133.07,0,0,1,11.07,17.94A43.45,43.45,0,0,0,136.13,103.81Zm16.8,123.38a18.41,18.41,0,0,1-.8-1.68,32.26,32.26,0,0,1-1.77-6.06,35.53,35.53,0,0,1-.65-5.73,8.13,8.13,0,0,1-3.94-1.13,7.54,7.54,0,0,1-2-1.73l-.18.11c1.43,7.61,3.91,15.39,9.39,16.24v0Z"/><path class="cls-5" d="M205.3,212.61a9.26,9.26,0,0,1-5.21-1.5,7.71,7.71,0,0,1-1-.85,14.56,14.56,0,0,1-7.88,2.38,7.67,7.67,0,0,1-6.39-2.88c-1.46-2-1.78-4.65-.91-7.58l1-3.33c.33-1,.31-1.74,0-2.08a2.16,2.16,0,0,0-2.11,0,5.19,5.19,0,0,0-1.23.77l-.08.09.18-.09a1.58,1.58,0,0,1,1.64,0c.32.3.36,1,.12,1.76l-.88,2.88c-1,3.26-.59,6.28,1.08,8.5a6.82,6.82,0,0,0,2.32,2,8.26,8.26,0,0,0,4.17,1,17.2,17.2,0,0,0,8-2.35,9.17,9.17,0,0,0,6.31,2.51h5.16l1.36-1.28ZM168,211.68l4-13.15c.27-.87.22-1.57-.12-1.88a1.82,1.82,0,0,0-1.82,0,5.4,5.4,0,0,0-1.18.7l-.22.18a1.61,1.61,0,0,1,1.6,0c.31.3.36,1,.11,1.76L166.24,213h8.41l1.64-1.34Zm-12.53,0c-3.49,1.22-6.56,1.16-8.9-.15a7.2,7.2,0,0,1-1.76-1.39l-.57.4-.52.32a7.37,7.37,0,0,0,2,1.73,8.13,8.13,0,0,0,3.94,1.13h.16a13.13,13.13,0,0,0,1.38-.09,15.54,15.54,0,0,0,2.86-.63h7.57l1.76-1.34Zm-28.82-23.42-.08.05a4.32,4.32,0,0,1-5.66-2.29,4.42,4.42,0,0,1-.34-1.68,4.29,4.29,0,0,1,.8-2.48l-.09.07a4.12,4.12,0,0,0-1.76,3.4,3.86,3.86,0,0,0,.16,1.13,4.14,4.14,0,0,0,6.75,2,1.84,1.84,0,0,0,.22-.17Zm80.51.39a4.31,4.31,0,0,1-3.49-6.84l-.13.12a4.16,4.16,0,0,0,2.38,7.56h0a4.12,4.12,0,0,0,2.76-1.06l.2-.14h0a4.3,4.3,0,0,1-1.69.35Z"/><path class="cls-5" d="M197.65,201.75l2.81-9.31c0-.1.06-.19.1-.29l0-.05.1-.23,0-.07a2.2,2.2,0,0,1,.12-.19l0-.07a3.74,3.74,0,0,1,1.34-1.22,4.08,4.08,0,0,0-2.35,1.24,5,5,0,0,0-1.22,2.29l-2.81,9.31a4.88,4.88,0,0,1-1.08,1.8l.06,0A6.07,6.07,0,0,0,197.65,201.75Zm-39.53.19,2.91-9.5a2,2,0,0,1,.1-.29l0-.06.11-.21,0-.08a2.2,2.2,0,0,1,.12-.19l.05-.09a4.08,4.08,0,0,1,.62-.69,3.52,3.52,0,0,0-.72.38,5.16,5.16,0,0,0-2.14,2.63l-3,9.5a6.4,6.4,0,0,1-1.36,2.24l.18-.08a6.61,6.61,0,0,0,3-3.56ZM143,211.28a12.29,12.29,0,0,1-5.74,1.57,8.43,8.43,0,0,1-4.33-1.14,7.55,7.55,0,0,1-2.15-1.91c-.22.15-.46.3-.7.44l-.64.34a7.5,7.5,0,0,0,2.25,2.06,8.29,8.29,0,0,0,4.3,1.13h0a11.45,11.45,0,0,0,6.58-2.19l.27-.18Zm-19.79.89h0a8.54,8.54,0,0,1-7-3.19,7.55,7.55,0,0,1-1-6.82l3-9.72a2.75,2.75,0,0,1,.11-.29l0-.05c0-.1.08-.17.11-.23l0-.07.12-.2,0-.07a3.47,3.47,0,0,1,.6-.67,5.62,5.62,0,0,0-1.82,1.3,4.18,4.18,0,0,0-1,1.69L113.87,202a8.53,8.53,0,0,0,1.13,7.74,9.7,9.7,0,0,0,7.29,3.62,9.35,9.35,0,0,0,4.58-1.05,10.5,10.5,0,0,0,2.46-1.67A13.52,13.52,0,0,1,123.23,212.17Zm4.66-8.11a6.33,6.33,0,0,0,1.2-1.11,14.87,14.87,0,0,1,2.42-6.52,16.45,16.45,0,0,1,4.57-4.65,14.73,14.73,0,0,0-2.18,1.49,16.93,16.93,0,0,0-4.51,5.31,16.13,16.13,0,0,0-1.92,5.76Zm13.54-6.58a2.35,2.35,0,0,1,1.46.19.85.85,0,0,1,.48.71l-1.16,3.89-.64,2.15-.06.17.42-.34a9.28,9.28,0,0,0,1.64-1.95l1.26-4.11a1.68,1.68,0,0,0-1.24-1.7,2.25,2.25,0,0,0-.58-.08,4.85,4.85,0,0,0-2.64,1c-.15.1-.28.21-.42.32l-.41.36-.07.06a7.18,7.18,0,0,1,1.07-.46,4.6,4.6,0,0,1,.89-.21Z"/><path class="cls-2" d="M211.48,184.34A4.31,4.31,0,0,0,204.4,181a4.45,4.45,0,0,0-.72.78,4.31,4.31,0,0,0,5.18,6.49h0a4.32,4.32,0,0,0,2.59-3.95Zm-4.31,3a3,3,0,1,1,3-3A3,3,0,0,1,207.17,187.32Zm-61,11a3.09,3.09,0,0,0-2.24-3.14,3.56,3.56,0,0,0-.92-.11c-2.46,0-5.44,2.29-6.89,5.47a6.4,6.4,0,0,0-.47,4.75,2.78,2.78,0,0,0,1.46,1.63c2,.92,5.18-.57,7.22-3.39.16-.22.31-.44.46-.69Zm-8.51,7.39a1.47,1.47,0,0,1-.77-.89,5.16,5.16,0,0,1,.44-3.73,9.65,9.65,0,0,1,2.14-3l.07-.07.41-.35c.14-.12.28-.22.42-.32a4.85,4.85,0,0,1,2.64-1,2.63,2.63,0,0,1,.58.07,1.7,1.7,0,0,1,1.24,1.7l-1.26,4.12a9.28,9.28,0,0,1-1.64,1.95l-.41.34C140.12,205.68,138.59,206.16,137.66,205.73Z"/><path class="cls-2" d="M150,189.89a3.57,3.57,0,0,0-2.26.88,7,7,0,0,0-.84-.48,10,10,0,0,0-8.25.11,15.06,15.06,0,0,0-1.87,1l-.13.08-.52.34a16.45,16.45,0,0,0-4.57,4.65,14.87,14.87,0,0,0-2.42,6.52,7,7,0,0,1-1.62,1.39,5.75,5.75,0,0,1-2.92.93,1.64,1.64,0,0,1-1.35-.5,1.49,1.49,0,0,1-.09-1.32l4.12-13.56h-5.68a3.51,3.51,0,0,0-2.33,1,3.47,3.47,0,0,0-.6.67l0,.07a1.32,1.32,0,0,0-.12.2l0,.07a1.63,1.63,0,0,0-.11.23l0,.05a2.75,2.75,0,0,0-.11.29l-3,9.72a7.55,7.55,0,0,0,1,6.82,8.56,8.56,0,0,0,7,3.19h0a13.52,13.52,0,0,0,6.1-1.52l0,0,.08,0a12,12,0,0,0,1.34-.78,7.55,7.55,0,0,0,2.15,1.91,8.43,8.43,0,0,0,4.33,1.14,12.29,12.29,0,0,0,5.74-1.57l-.16.12-.27.18c.89,6.25,2.24,10.38,4.37,13.35a10.76,10.76,0,0,0,4.37,3.74,11.43,11.43,0,0,0,1.2.48c1.65.55,3.4,1.06,4.24,1.29a34.22,34.22,0,0,1-3.83-3.23c-5.48-.85-8-8.63-9.39-16.24l.18-.11c.17-.11.34-.2.51-.32l.58-.4a7.2,7.2,0,0,0,1.76,1.39c2.33,1.31,5.41,1.37,8.9.15h8l3.65-12a4.84,4.84,0,0,1,1.57-2.2l.23-.18a5.4,5.4,0,0,1,1.18-.7,1.82,1.82,0,0,1,1.82,0c.34.31.39,1,.12,1.88l-4,13.15h8.28L179.85,200v0a5.16,5.16,0,0,1,1.58-2.32l.08-.08a4.89,4.89,0,0,1,1.23-.77,2.16,2.16,0,0,1,2.11,0c.36.34.38,1.09,0,2.08l-1,3.33c-.87,2.93-.55,5.62.91,7.58a7.67,7.67,0,0,0,6.39,2.88,14.56,14.56,0,0,0,7.88-2.38,7.71,7.71,0,0,0,1,.85,9.26,9.26,0,0,0,5.21,1.5h5.6L213,205.7h-6.32a1.64,1.64,0,0,1-1.35-.49,1.49,1.49,0,0,1-.09-1.33l4.26-14h-5.68a3.35,3.35,0,0,0-1.6.44,3.74,3.74,0,0,0-1.34,1.22l0,.07a2.2,2.2,0,0,0-.12.19l0,.07-.1.23,0,.05a2,2,0,0,0-.1.29l-2.82,9.31a6,6,0,0,1-2.81,3.18l-.06,0a5.54,5.54,0,0,1-2.6.74c-.16,0-.45,0-.57-.19a2.12,2.12,0,0,1,.06-1.61l1.08-3.53c1.29-4.28.44-7.9-2.3-9.67a7.43,7.43,0,0,0-5.77-.81,14.32,14.32,0,0,0-5.2,2.47,7,7,0,0,0-3.74-2.43,9.7,9.7,0,0,0-5.78.36l.12-.4H164.4a3.51,3.51,0,0,0-2.31.94,3.73,3.73,0,0,0-.62.69l-.05.09-.12.19,0,.08-.11.21,0,.06c0,.1-.08.19-.11.29l-2.9,9.5a6.61,6.61,0,0,1-3,3.56l-.18.08a3.93,3.93,0,0,1-1.7.45,1.65,1.65,0,0,1-1.4-.62,2.92,2.92,0,0,1-.12-2.58l3.94-12.94H150Zm3.88,1.32-3.39,11.21a4.16,4.16,0,0,0,.29,3.76,3,3,0,0,0,2.48,1.17c2.47,0,5.24-2.24,6.16-5l2.92-9.53a2.38,2.38,0,0,1,2.11-1.62h3.88l-.54,1.79a9.06,9.06,0,0,1,7.75-1.76,5.2,5.2,0,0,1,3.59,3.12c3.81-3.27,8-4.27,10.64-2.55,2.21,1.44,2.86,4.49,1.75,8.17l-1.08,3.53a3.14,3.14,0,0,0,.14,2.79,2,2,0,0,0,1.64.73,7.66,7.66,0,0,0,6.74-4.89l2.82-9.31a2.37,2.37,0,0,1,2.1-1.62h3.88L204,203.5a2.78,2.78,0,0,0,.29,2.5,2.93,2.93,0,0,0,2.42,1h4.5l-1.27,4.25h-4.61a7.1,7.1,0,0,1-6-2.8,13.41,13.41,0,0,1-8.12,2.83,6.39,6.39,0,0,1-5.33-2.35,7.13,7.13,0,0,1-.7-6.4l1-3.3c.51-1.51.37-2.74-.39-3.46a3.36,3.36,0,0,0-3.53-.28,6.8,6.8,0,0,0-3.66,4.06l-3.28,10.77h-5.5l3.48-11.44c.43-1.4.26-2.56-.5-3.24a3,3,0,0,0-3.22-.26,6.74,6.74,0,0,0-3.75,4l-.07.28,0,0-3.26,10.74H157l.26-.82a13.79,13.79,0,0,1-7.62,1.62,6.07,6.07,0,0,1-4.54-2.91,11.93,11.93,0,0,1-7.74,3.29,7.13,7.13,0,0,1-3.68-1,6.23,6.23,0,0,1-2.46-2.67,12.87,12.87,0,0,1-7.94,3h-.06a7.24,7.24,0,0,1-5.92-2.66,6.23,6.23,0,0,1-.77-5.65l3-9.71a2.36,2.36,0,0,1,2.1-1.61h3.89l-3.6,11.84a2.78,2.78,0,0,0,.29,2.5,2.91,2.91,0,0,0,2.42,1,7.83,7.83,0,0,0,5.83-3.14,13.35,13.35,0,0,1,2.24-6.3,14.66,14.66,0,0,1,6.5-5.53,8.58,8.58,0,0,1,7.14-.15,6.38,6.38,0,0,1,1.65,1.16,2.38,2.38,0,0,1,2-1.43Zm-33.25-6.87a4.32,4.32,0,0,0,4.32,4.31,4.38,4.38,0,0,0,1.68-.34l.08-.05a4.31,4.31,0,1,0-4.53-7.23,4.45,4.45,0,0,0-1.55,3.31Zm4.31-3a3,3,0,1,1-3,3A3,3,0,0,1,124.89,181.35Z"/><path class="cls-6" d="M210.15,184.34a3,3,0,1,0-3,3A3,3,0,0,0,210.15,184.34Zm-85.26,3a3,3,0,1,0-3-3A3,3,0,0,0,124.89,187.32ZM150,191.21a2.37,2.37,0,0,0-2,1.43,6.5,6.5,0,0,0-1.64-1.16,8.64,8.64,0,0,0-7.15.14,14.75,14.75,0,0,0-6.5,5.54,13.23,13.23,0,0,0-2.23,6.3,7.87,7.87,0,0,1-5.84,3.14,2.91,2.91,0,0,1-2.42-1,2.78,2.78,0,0,1-.29-2.5l3.6-11.85h-3.88a2.38,2.38,0,0,0-2.11,1.62l-3,9.71a6.23,6.23,0,0,0,.77,5.65,7.24,7.24,0,0,0,5.92,2.66h.06a12.85,12.85,0,0,0,7.94-3,6.23,6.23,0,0,0,2.46,2.67,7.12,7.12,0,0,0,3.68,1,12,12,0,0,0,7.75-3.28,6,6,0,0,0,4.53,2.91,13.72,13.72,0,0,0,7.62-1.63l-.25.83h5.5l3.27-10.74v0l.07-.28a6.82,6.82,0,0,1,3.75-4,2.63,2.63,0,0,1,3.72,3.51l-3.48,11.44h5.5l3.28-10.76a6.8,6.8,0,0,1,3.66-4.06,3.36,3.36,0,0,1,3.53.28c.76.72.9,1.94.4,3.46l-1,3.3a7.13,7.13,0,0,0,.7,6.4,6.39,6.39,0,0,0,5.33,2.35,13.41,13.41,0,0,0,8.12-2.83,7.12,7.12,0,0,0,6,2.8h4.61l1.27-4.25h-4.5a2.93,2.93,0,0,1-2.42-1,2.78,2.78,0,0,1-.29-2.5l3.74-12.29h-3.89a2.36,2.36,0,0,0-2.1,1.61l-2.82,9.32a7.65,7.65,0,0,1-6.74,4.89,2,2,0,0,1-1.64-.73,3.14,3.14,0,0,1-.14-2.79l1.08-3.53c1.11-3.68.46-6.73-1.75-8.17-2.66-1.72-6.83-.72-10.64,2.55a5.2,5.2,0,0,0-3.59-3.12,9.06,9.06,0,0,0-7.75,1.76l.54-1.79H164.4a2.38,2.38,0,0,0-2.11,1.62l-2.92,9.53c-.92,2.75-3.68,5-6.16,5a2.92,2.92,0,0,1-2.47-1.17,4.15,4.15,0,0,1-.3-3.77l3.4-11.2Zm-5.16,11.65c-.15.24-.3.47-.46.69-2,2.82-5.21,4.3-7.22,3.39a2.77,2.77,0,0,1-1.46-1.64,6.38,6.38,0,0,1,.47-4.74c1.45-3.18,4.43-5.47,6.89-5.47a3.51,3.51,0,0,1,.92.11,3.09,3.09,0,0,1,2.24,3.14Z"/><path class="cls-5" d="M95.16,192.19l.17-.24c1.56-2.1,3.69-5,5.7-7.6l0,0c3.62-4.31,5.93-6.43,8.85-8.1a18.2,18.2,0,0,1,4.83-1.87l-.44,0a15.83,15.83,0,0,0-1.81.43,19.72,19.72,0,0,0-4.44,1.81h0c-.39.22-.76.45-1.14.69-2.55,1.65-4.8,3.83-8.08,7.73l-.06.07-4,5.31.37,1.76ZM78.63,213.28A14.8,14.8,0,0,1,71.29,216a34.73,34.73,0,0,1-4.47.4,23.4,23.4,0,0,0,3.35-3.16A12.36,12.36,0,0,0,72.65,209c.51-1.49,7.69-24.75,8.51-27.4l0-.1c.1-.35.19-.67.26-1s.1-.41.14-.59a8.05,8.05,0,0,0,.21-1.8,6.43,6.43,0,0,0-.33-2.23,2,2,0,0,0-.19-.42l0-.07h0L80,176.66l0,.06a2.35,2.35,0,0,1,.17.44,7.12,7.12,0,0,1-.2,3.71l-8.68,27.9c-1.49,4.63-7.52,8.36-7.58,8.39l-.47.29.55.05s.91.08,2.28.08a31.62,31.62,0,0,0,4.36-.29c4.67-.66,7.83-2.35,9.45-5.06.22-.35.64-1.06.93-1.57a11.51,11.51,0,0,1-1.23,1.64A12.58,12.58,0,0,1,78.63,213.28Zm18.94-.18,5.66-18.26L100.88,198l-.36,1.17h0l-4.69,15.1-.07.23h11.47l1.34-1.33-.06,0,0,0-.23,0,0,0ZM86.72,193.42l-.8,2.61,3.52,16.64,1.16-.88Z"/><path class="cls-2" d="M120.78,176.27c1.08-1,1.64-1.43,2.77-2.35a38.29,38.29,0,0,0-4-.16,20.52,20.52,0,0,0-4.8.58,18.2,18.2,0,0,0-4.83,1.87c-2.92,1.67-5.23,3.79-8.85,8.1l0,.05c-2,2.62-4.14,5.49-5.7,7.59l-.17.24-.37-1.76-3.17-15.05H81.24l0,.06a2,2,0,0,1,.19.42,6.43,6.43,0,0,1,.33,2.23,8.59,8.59,0,0,1-.22,1.8c0,.2-.08.4-.13.59s-.16.63-.26,1l0,.1c-.82,2.65-8,25.91-8.52,27.4a12.05,12.05,0,0,1-2.48,4.29,23.38,23.38,0,0,1-3.34,3.16,36.11,36.11,0,0,0,4.46-.39,14.89,14.89,0,0,0,7.35-2.75,12.58,12.58,0,0,0,1-1,11.51,11.51,0,0,0,1.23-1.64A20.11,20.11,0,0,0,83,205.49l2.9-9.46.8-2.61,3.88,18.37L100.88,198l2.34-3.15L97.57,213.1h11c-.21-.72-.34-1.22-.46-1.76a5,5,0,0,1,0-1.88,11,11,0,0,1,.4-1.68l7.2-23.14c0-.1.06-.19.1-.29a17.52,17.52,0,0,1,5-8.08Zm-6.38,8-7.2,23.14a14.11,14.11,0,0,0-.45,1.91,6.25,6.25,0,0,0,.07,2.36l0,.12H99.37l0-.12,7.39-23.83L91.3,208.63,87,188.09l-5.21,17a16.69,16.69,0,0,1-3.16,6.3c-.61.67-2.47,2.74-7.74,3.29l-.26,0,.19-.18a13.15,13.15,0,0,0,3.12-5.14c.54-1.56,8.48-27.29,8.56-27.54a17.11,17.11,0,0,0,.59-2.67,6.11,6.11,0,0,0-.07-2.37l0-.11h7.59l3.91,18.63s5.64-7.59,7.63-10.18c3.51-4.18,5.74-6.22,8.5-7.8a18.56,18.56,0,0,1,9-2.27h.55l-.19.16a18.65,18.65,0,0,0-5.51,9Z"/><path class="cls-6" d="M119.86,175.1h-.31a18.56,18.56,0,0,0-9,2.27c-2.76,1.58-5,3.62-8.5,7.8-2,2.59-7.63,10.18-7.63,10.18l-3.91-18.63H83l0,.11a6.31,6.31,0,0,1,.07,2.37,17.11,17.11,0,0,1-.59,2.67c-.08.26-8,26-8.56,27.54a13.26,13.26,0,0,1-3.12,5.14l-.19.19.26,0c5.27-.55,7.13-2.62,7.74-3.29a16.69,16.69,0,0,0,3.16-6.3l5.21-17,4.33,20.54,15.5-20.81-7.38,23.83,0,.12h7.48l0-.12a6.05,6.05,0,0,1-.07-2.36,12.74,12.74,0,0,1,.45-1.91l7.19-23.14a18.66,18.66,0,0,1,5.52-9l.18-.16Z"/><path class="cls-5" d="M104.27,150.11a42.33,42.33,0,0,0,1.29,8.67c-.78-10.2,1-18.79,4.67-25.85l-2.88,0A38.76,38.76,0,0,0,104.27,150.11ZM151.35,108h-.82c-12.07.38-23.24,3.64-31.25,9.68a35.61,35.61,0,0,0-7.53,7.61q2.15-.36,4.2-.63C124.41,115.24,137.17,109.8,151.35,108Z"/><path class="cls-3" d="M101.13,133c3-.12,6.06-.15,9.1-.11,4,.06,8.15.26,12.53.68a58,58,0,0,1,6.25-4.16c-13-.57-30.41.08-47,5.5a137,137,0,0,1,17.25-1.83Z"/><path class="cls-6" d="M214.48,213.15h0l-.31-1h-.47v1.47H214v-1.17h0l.37,1.17h.26l.38-1.17h0v1.17h.27v-1.47h-.47Zm-2.1-.7h.4v1.21h.27v-1.21h.41v-.26h-1.08Z"/></svg>